<?xml version="1.0" encoding="UTF-8"?>
<svg version="1.1" xmlns="http://www.w3.org/2000/svg" width="2000" height="2000">
<path d="M0 0 C660 0 1320 0 2000 0 C2000 660 2000 1320 2000 2000 C1340 2000 680 2000 0 2000 C0 1340 0 680 0 0 Z " fill="#FF630D" transform="translate(0,0)"/>
<path d="M0 0 C5.701728 2.57698187 8.44551207 7.97417683 10.9765625 13.43359375 C12.57874739 17.7096953 13.85102672 22.00954905 14.9765625 26.43359375 C15.21213867 27.34882813 15.44771484 28.2640625 15.69042969 29.20703125 C17.77399583 37.68696338 18.93228255 46.13556585 19.8515625 54.80859375 C20.01698207 56.31394908 20.18301771 57.81923682 20.34960938 59.32446289 C20.90364327 64.35960171 21.44043823 69.39652185 21.9765625 74.43359375 C22.17731889 76.3113703 22.3781674 78.189137 22.57910156 80.06689453 C23.53523202 89.00944343 24.4856874 97.95259326 25.43408203 106.89596558 C25.84880947 110.80675077 26.26395776 114.71749126 26.67907715 118.62823486 C26.96668748 121.34046995 27.2533893 124.05279997 27.54003906 126.76513672 C27.97351834 130.86025846 28.41327107 134.95466343 28.85766602 139.0486145 C29.01615576 140.51720287 29.17267939 141.98600524 29.3269043 143.45504761 C30.28451609 152.56482574 31.60814083 161.53820211 33.27636719 170.54321289 C33.75186424 173.18513953 34.1940102 175.81016322 34.58227539 178.46411133 C38.41504001 204.53303738 52.23516059 229.36877263 64.8515625 252.12109375 C65.35518311 253.03238037 65.85880371 253.94366699 66.37768555 254.88256836 C76.78278431 273.27709696 88.77157037 290.81000749 100.4140625 308.43359375 C101.04453491 309.38861786 101.67500732 310.34364197 102.32458496 311.3276062 C115.91384472 332.04145417 115.91384472 332.04145417 129.9765625 352.43359375 C130.39131836 353.02205078 130.80607422 353.61050781 131.23339844 354.21679688 C140.86892135 367.67925104 155.6790329 376.49662206 171.9765625 379.43359375 C175.10793526 379.69598037 178.21066825 379.72060127 181.3515625 379.68359375 C182.61154053 379.67235474 182.61154053 379.67235474 183.89697266 379.66088867 C198.57687509 379.40601937 210.64600508 374.09594917 223.6640625 367.74609375 C267.44183088 346.51978555 314.80702363 335.51890833 363.00634766 330.73242188 C364.83058506 330.54888854 366.65365871 330.35258048 368.47412109 330.13476562 C377.33566102 329.15189276 386.2305306 329.2832763 395.13427734 329.30322266 C397.94243911 329.30852927 400.75043718 329.30328069 403.55859375 329.296875 C412.51169164 329.29274375 421.44719739 329.41244733 430.390625 329.84765625 C431.52987427 329.89948563 431.52987427 329.89948563 432.69213867 329.95236206 C438.7270375 330.28542971 444.46473286 331.27620942 450.265625 333.0234375 C450.99040039 333.23983887 451.71517578 333.45624023 452.46191406 333.67919922 C453.29174805 333.92814941 454.12158203 334.17709961 454.9765625 334.43359375 C455.98944336 334.72766113 457.00232422 335.02172852 458.04589844 335.32470703 C515.20622135 351.97246592 568.34957414 379.02536221 613.9765625 417.43359375 C614.98678467 418.27317627 615.99700684 419.11275879 617.0378418 419.9777832 C625.55014749 427.11074428 633.53035876 434.67501498 641.35571289 442.55200195 C643.29806734 444.50514863 645.25099208 446.44726995 647.20507812 448.38867188 C654.25845981 455.4346306 660.79856143 462.60069672 666.9765625 470.43359375 C667.91082963 471.53585642 668.85223175 472.63216539 669.8046875 473.71875 C677.48103046 482.52178201 684.30613266 491.85209801 690.9765625 501.43359375 C691.47269043 502.14612305 691.96881836 502.85865234 692.47998047 503.59277344 C742.40548112 575.82044394 773.19585074 660.33197928 788.43334961 746.4987793 C788.90735744 749.05969983 789.42199443 751.60716673 789.94580078 754.15820312 C790.94838204 759.15338974 791.7374813 764.15808075 792.44140625 769.203125 C792.56845444 770.10464798 792.69550262 771.00617096 792.82640076 771.93501282 C794.09525413 781.07054956 795.19388624 790.22380053 796.22924805 799.38842773 C796.53712886 802.10403843 796.85327961 804.81860183 797.16992188 807.53320312 C797.81846753 813.16213994 798.40413488 818.79647832 798.9765625 824.43359375 C799.07372559 825.34371216 799.17088867 826.25383057 799.27099609 827.19152832 C801.48065999 848.40784168 801.35142282 869.68733621 801.34716797 890.99365234 C801.3470067 895.17156528 801.36071848 899.34903369 801.38818359 903.52685547 C801.63099932 941.06564873 800.37363066 978.9956481 793.0390625 1015.93359375 C792.88244141 1016.74183594 792.72582031 1017.55007813 792.56445312 1018.3828125 C792.23069279 1020.09815446 791.89212346 1021.81256613 791.54931641 1023.52612305 C791.1304695 1025.65231565 790.7288989 1027.78193191 790.33740234 1029.91333008 C788.64687037 1038.88153811 786.32779217 1047.45566887 783.4765625 1056.12109375 C783.1552536 1057.10615402 783.1552536 1057.10615402 782.82745361 1058.1111145 C776.53999658 1077.34318323 769.63234808 1096.54191582 760.05273438 1114.40332031 C758.8252732 1116.71901158 757.64261903 1119.05515721 756.4609375 1121.39453125 C743.04593316 1147.7748614 726.36799378 1173.16728036 706.2421875 1194.95703125 C705.00491262 1196.30950069 703.77509729 1197.6695908 702.58496094 1199.0637207 C697.45955472 1205.0596991 691.94601595 1210.65027281 686.37158203 1216.22387695 C684.73828802 1217.85935257 683.1131778 1219.50267083 681.48828125 1221.14648438 C674.97480769 1227.69494476 668.2419618 1233.71230959 660.9765625 1239.43359375 C659.72177274 1240.45826689 658.46889561 1241.48529091 657.21875 1242.515625 C589.49187796 1297.67818516 495.2477994 1333.59740222 406.99609375 1324.9296875 C401.9446161 1324.31624039 396.96853309 1323.41026275 391.9765625 1322.43359375 C390.59960205 1322.18416016 390.59960205 1322.18416016 389.19482422 1321.9296875 C333.70111745 1311.87209339 280.96525965 1286.91076765 237.9765625 1250.43359375 C236.50703125 1249.24056641 236.50703125 1249.24056641 235.0078125 1248.0234375 C226.96254664 1241.41792805 219.53658257 1234.20790511 212.1640625 1226.87109375 C211.67619263 1226.38840027 211.18832275 1225.90570679 210.68566895 1225.40838623 C203.98542837 1218.76425827 197.84343963 1211.82546679 191.9765625 1204.43359375 C190.95221382 1203.19023476 189.9252536 1201.94901796 188.89453125 1200.7109375 C181.23249325 1191.38776418 174.45214885 1181.61151103 167.9765625 1171.43359375 C167.57872559 1170.81049316 167.18088867 1170.18739258 166.77099609 1169.54541016 C145.08280446 1135.27863143 128.824166 1096.29197515 120.9765625 1056.43359375 C120.79544922 1055.51513672 120.61433594 1054.59667969 120.42773438 1053.65039062 C119.18757637 1047.25947186 118.04701211 1040.85499233 116.9765625 1034.43359375 C116.76 1033.13550781 116.5434375 1031.83742188 116.3203125 1030.5 C113.98426154 1015.36719933 113.81280087 1000.19828743 113.84619141 984.92211914 C113.85159934 981.97602298 113.84618625 979.03007623 113.83984375 976.08398438 C113.8405039 974.18098925 113.84178374 972.27799422 113.84375 970.375 C113.84172577 969.50919815 113.83970154 968.6433963 113.83761597 967.75135803 C113.85606164 962.90265165 114.15360829 958.18626341 114.74520874 953.37382507 C115.00483578 951.19648198 115.13003337 949.03929635 115.1875 946.84765625 C117.09616827 889.98943317 142.93163597 837.12421038 184.2265625 798.37109375 C201.01278503 783.00328305 220.39389661 771.01434109 240.9765625 761.43359375 C242.11222656 760.90121094 243.24789062 760.36882813 244.41796875 759.8203125 C266.47758855 749.92799168 291.620769 743.40153312 315.84375 743.1953125 C316.7875502 743.18547333 317.7313504 743.17563416 318.70375061 743.16549683 C358.74373778 742.83411442 358.74373778 742.83411442 376.9765625 747.43359375 C377.91790039 747.66965332 378.85923828 747.90571289 379.82910156 748.14892578 C418.5812978 758.2505487 452.16993538 777.89843155 480.9765625 805.43359375 C481.99169922 806.38685547 481.99169922 806.38685547 483.02734375 807.359375 C518.80879531 841.82472719 541.68911413 895.05146574 542.9765625 944.43359375 C543.00379395 945.43712891 543.03102539 946.44066406 543.05908203 947.47460938 C544.35023949 1003.70086258 525.98689557 1059.14666485 486.93359375 1100.37890625 C486.46002441 1100.8677832 485.98645508 1101.35666016 485.49853516 1101.86035156 C484.42934548 1102.96555821 483.3671078 1104.0775122 482.31005859 1105.19433594 C467.95963111 1120.33736266 452.0283822 1132.05264909 433.9765625 1142.43359375 C433.34572754 1142.80323242 432.71489258 1143.17287109 432.06494141 1143.55371094 C421.22574633 1149.86808766 409.78066739 1154.25886354 397.9765625 1158.43359375 C397.18765625 1158.72008789 396.39875 1159.00658203 395.5859375 1159.30175781 C373.51938143 1167.24834497 350.18293616 1169.64484775 326.8515625 1169.62109375 C326.12510529 1169.62181885 325.39864807 1169.62254395 324.650177 1169.62329102 C313.97943025 1169.62211351 303.51794374 1169.23608947 292.9765625 1167.43359375 C341.20381101 1210.04131939 401.99190076 1231.07307624 466.16748047 1227.24316406 C514.80722488 1223.2715802 561.32644607 1201.78632823 598.9765625 1171.43359375 C600.03253697 1170.60414742 601.08852556 1169.77471907 602.14453125 1168.9453125 C609.60434739 1162.89446551 616.4178774 1156.19856338 623.2265625 1149.43359375 C624.14977295 1148.519729 625.0729834 1147.60586426 626.02416992 1146.66430664 C632.09896201 1140.56114043 637.65866779 1134.20402033 642.9765625 1127.43359375 C643.56646973 1126.68803223 644.15637695 1125.9424707 644.76416016 1125.17431641 C668.87551787 1094.30355956 682.44184138 1061.06221935 691.9765625 1023.43359375 C692.20585449 1022.5302832 692.43514648 1021.62697266 692.67138672 1020.69628906 C694.19589888 1014.62824595 695.61096822 1008.53920793 696.9765625 1002.43359375 C697.22293457 1001.34208008 697.46930664 1000.25056641 697.72314453 999.12597656 C701.55726668 981.97095076 704.3867986 964.94064433 705.9765625 947.43359375 C706.06470718 946.51603806 706.15285187 945.59848236 706.2436676 944.65312195 C707.07815651 935.13971198 707.12252376 925.68127294 707.109375 916.140625 C707.11005139 914.38303107 707.11102419 912.62543724 707.11227417 910.86784363 C707.11374042 907.19419458 707.11163473 903.52057 707.10693359 899.84692383 C707.10129101 895.22030666 707.10458709 890.59374765 707.11036587 885.96713257 C707.41696008 849.56483903 707.41696008 849.56483903 704.6640625 813.30859375 C704.53362549 812.21772461 704.40318848 811.12685547 704.26879883 810.00292969 C703.98963638 807.68272878 703.70599341 805.36306276 703.41796875 803.04394531 C702.95623465 799.26732812 702.52720187 795.48787655 702.1015625 791.70703125 C698.05733061 756.35069795 690.85883611 721.33750481 679.9765625 687.43359375 C679.66525391 686.44278809 679.35394531 685.45198242 679.03320312 684.43115234 C662.38757061 631.60461162 637.3102057 581.0325865 602.9765625 537.43359375 C602.4496582 536.76392578 601.92275391 536.09425781 601.37988281 535.40429688 C595.04047796 527.39068719 588.50100048 519.63613949 581.52734375 512.16796875 C579.11506811 509.58206837 576.76007362 506.95453273 574.4140625 504.30859375 C567.39717351 496.50230475 559.96951193 489.23041519 551.9765625 482.43359375 C551.079375 481.63566406 550.1821875 480.83773438 549.2578125 480.015625 C528.64394028 461.84678614 504.35419646 447.79924297 478.9765625 437.43359375 C477.69193115 436.90789795 477.69193115 436.90789795 476.38134766 436.37158203 C455.36608679 427.92576013 433.40777099 423.22246306 410.9765625 420.43359375 C410.3069751 420.33933105 409.6373877 420.24506836 408.94750977 420.14794922 C401.66999808 419.20021968 394.36809559 419.1909457 387.0390625 419.18359375 C385.98918152 419.18208313 385.98918152 419.18208313 384.91809082 419.18054199 C371.12087071 419.19384995 357.61769353 420.30013571 343.9765625 422.43359375 C342.67235352 422.6344458 342.67235352 422.6344458 341.34179688 422.83935547 C277.45347334 433.1097894 215.77564393 470.93250705 168.55859375 514.09765625 C167.17663398 515.34790125 165.78908147 516.59275482 164.3684082 517.79882812 C158.05077911 523.18658612 152.19877563 529.02527474 146.33178711 534.89306641 C144.55145998 536.67121147 142.76327873 538.44118936 140.97460938 540.2109375 C134.89623789 546.26020316 129.14966385 552.36715772 123.8347168 559.10791016 C122.0461113 561.34654581 120.17398442 563.45782726 118.2265625 565.55859375 C112.01614788 572.47277305 106.54880204 580.00507016 100.9765625 587.43359375 C100.5031543 588.06040039 100.02974609 588.68720703 99.54199219 589.33300781 C62.49620067 638.45140046 34.30232998 694.29293803 12.5390625 751.68359375 C12.25142029 752.44143158 11.96377808 753.19926941 11.66741943 753.98007202 C7.48475511 765.04062437 3.63671527 776.19015763 -0.0234375 787.43359375 C-0.28365692 788.22999268 -0.54387634 789.0263916 -0.8119812 789.84692383 C-11.01972512 820.83145237 -11.01972512 820.83145237 -19.0234375 852.43359375 C-19.2714209 853.58843262 -19.5194043 854.74327148 -19.77490234 855.93310547 C-23.87152547 875.32446218 -26.83984701 894.72941908 -29.0234375 914.43359375 C-29.14203125 915.43825684 -29.260625 916.44291992 -29.3828125 917.47802734 C-34.50168656 961.81875046 -30.79243593 1006.68579673 -23.0234375 1050.43359375 C-22.83442871 1051.50947754 -22.64541992 1052.58536133 -22.45068359 1053.69384766 C-13.02889127 1105.31948822 11.82341391 1153.7763031 42.9765625 1195.43359375 C43.77876221 1196.51398926 43.77876221 1196.51398926 44.59716797 1197.61621094 C55.80659388 1212.68108674 67.86581129 1226.49451395 81.1015625 1239.80859375 C81.60676422 1240.31915314 82.11196594 1240.82971252 82.63247681 1241.35574341 C89.39979092 1248.17745208 96.44621589 1254.4523976 103.9765625 1260.43359375 C105.27041305 1261.5062256 106.56116533 1262.58261464 107.84765625 1263.6640625 C129.49759865 1281.68823038 153.41886445 1296.71262006 177.9765625 1310.43359375 C178.9773584 1310.9941748 179.9781543 1311.55475586 181.00927734 1312.13232422 C199.87200587 1322.63190137 219.18246985 1331.83434505 238.9765625 1340.43359375 C240.13478516 1340.93874512 241.29300781 1341.44389648 242.48632812 1341.96435547 C282.11674447 1359.09127318 323.73523402 1371.16795888 366.6015625 1376.55859375 C367.890625 1376.72746094 369.1796875 1376.89632813 370.5078125 1377.0703125 C387.26077032 1379.21078095 403.73341966 1379.64031166 420.6015625 1379.62109375 C422.31113129 1379.61919037 422.31113129 1379.61919037 424.05523682 1379.61724854 C489.53928909 1379.47813847 555.64060302 1366.71068545 614.47167969 1336.98608398 C616.28101431 1336.08203659 618.12579792 1335.24947605 619.9765625 1334.43359375 C620.6365625 1334.76359375 621.2965625 1335.09359375 621.9765625 1335.43359375 C578.17317303 1370.11740064 529.76342747 1397.54336957 475.9765625 1413.43359375 C474.76782471 1413.79179199 474.76782471 1413.79179199 473.53466797 1414.15722656 C457.10863761 1418.92637339 440.3919041 1421.908051 423.55981445 1424.80908203 C420.45279417 1425.35059309 417.35333818 1425.9209741 414.25390625 1426.50390625 C393.02715902 1430.34833654 371.86569169 1430.71280506 350.3515625 1430.68359375 C348.54880356 1430.68229462 348.54880356 1430.68229462 346.70962524 1430.68096924 C326.87792362 1430.64413027 307.21102538 1430.29243564 287.5390625 1427.62109375 C286.88289948 1427.5343338 286.22673645 1427.44757385 285.5506897 1427.35818481 C275.71135082 1426.0561831 265.95911163 1424.46477876 256.23828125 1422.4609375 C252.44380991 1421.68794637 248.63833434 1421.04467383 244.81602478 1420.42935181 C234.66231522 1418.79008325 224.62632043 1416.79392656 214.6015625 1414.49609375 C213.35847321 1414.21171951 213.35847321 1414.21171951 212.090271 1413.92160034 C175.86072296 1405.54314592 141.17879933 1392.07863047 107.9765625 1375.43359375 C107.05359375 1374.97339844 106.130625 1374.51320313 105.1796875 1374.0390625 C79.09318344 1360.95811321 54.52918232 1344.96261342 31.9765625 1326.43359375 C31.15599365 1325.75949463 31.15599365 1325.75949463 30.31884766 1325.07177734 C18.7823916 1315.5431311 7.87427069 1305.4227827 -2.74612427 1294.88613892 C-4.1678428 1293.47632752 -5.59350538 1292.07049696 -7.01928711 1290.66479492 C-13.12629925 1284.56541587 -18.64595113 1278.17888712 -24.0234375 1271.43359375 C-24.88693403 1270.40613471 -25.75532764 1269.38272611 -26.6328125 1268.3671875 C-64.92423286 1223.71715537 -88.94597578 1169.16538322 -106.0234375 1113.43359375 C-106.31702148 1112.48693848 -106.61060547 1111.5402832 -106.91308594 1110.56494141 C-115.10349842 1083.81195626 -120.47143872 1055.27468524 -123.0234375 1027.43359375 C-123.15646576 1026.08439743 -123.29030495 1024.7352809 -123.42480469 1023.38623047 C-130.2989806 953.58814208 -123.57975824 884.28752192 -106.72900391 816.30419922 C-106.08535837 813.68551957 -105.46218897 811.06313466 -104.84765625 808.4375 C-88.81921361 740.76878303 -59.74439349 673.32111486 -24.72753906 613.35449219 C-22.92546482 610.26566465 -21.14294328 607.16595113 -19.359375 604.06640625 C-5.60241395 580.33896378 9.52794195 557.38658162 25.9765625 535.43359375 C26.40549805 534.8597998 26.83443359 534.28600586 27.27636719 533.69482422 C32.17278118 527.17325804 37.264372 520.81825506 42.4140625 514.49609375 C43.23813599 513.48180298 43.23813599 513.48180298 44.07885742 512.44702148 C46.69407161 509.229394 49.31863293 506.02097611 51.96875 502.83203125 C68.23383448 483.03613168 76.15017383 460.24400995 73.9765625 434.43359375 C70.91390995 413.59122229 60.33217715 398.29891849 46.25024414 383.1640625 C41.31866934 377.81455764 36.87018241 372.12804225 32.45068359 366.35351562 C30.89310571 364.32489813 29.32048293 362.3085612 27.74609375 360.29296875 C-7.37063752 315.13698979 -35.39698954 260.2568822 -44.70166016 203.39208984 C-44.99679361 201.59576164 -45.32677479 199.80524942 -45.66015625 198.015625 C-48.00319854 185.17043571 -48.23717811 172.13907166 -48.5859375 159.12109375 C-48.62927035 157.59048664 -48.67288849 156.05988758 -48.71679688 154.52929688 C-48.8222881 150.83081582 -48.92395816 147.13224198 -49.0234375 143.43359375 C-76.14443671 189.79731459 -100.58497531 236.94151967 -111.8359375 289.93359375 C-112.03098877 290.85164795 -112.22604004 291.76970215 -112.42700195 292.71557617 C-115.49715981 307.96614858 -116.42910261 322.85676149 -116.3984375 338.37109375 C-116.39855835 339.31358978 -116.3986792 340.25608582 -116.39880371 341.22714233 C-116.37134755 356.29690116 -115.47753659 370.70741238 -112.0234375 385.43359375 C-111.5903125 387.34978516 -111.5903125 387.34978516 -111.1484375 389.3046875 C-104.31149586 415.70627017 -91.55596497 439.66345147 -75.3984375 461.43359375 C-67.59738616 471.97019705 -58.54310658 484.69941239 -60.0234375 498.43359375 C-61.90214418 503.02598785 -64.72072604 505.07927993 -69.0234375 507.43359375 C-103.41092977 518.20139436 -151.23056978 503.00722069 -185.14306641 493.89282227 C-195.49321551 491.13417266 -210.5985356 488.52576411 -220.7734375 492.93359375 C-224.82567894 495.57120135 -227.46309049 498.85415672 -229.0234375 503.43359375 C-232.45929838 531.75232077 -213.40839463 562.44716473 -199.0234375 585.43359375 C-198.51619141 586.25327637 -198.00894531 587.07295898 -197.48632812 587.91748047 C-183.61083006 610.30146047 -168.45323661 631.83850595 -152.48046875 652.7734375 C-147.43072704 659.47883222 -143.26411874 665.54585415 -143.6796875 674.359375 C-144.77569915 680.97280892 -147.74260278 686.09340554 -153.0546875 690.15625 C-165.03245644 697.92754056 -179.01701122 697.84006272 -192.8359375 697.80859375 C-193.61335297 697.80904694 -194.39076843 697.80950012 -195.19174194 697.80996704 C-213.86056517 697.77832779 -232.19186984 695.80431813 -250.453125 691.828125 C-258.11961233 690.26563322 -265.52787233 689.91761817 -273.3359375 689.93359375 C-274.61533203 689.90523437 -275.89472656 689.876875 -277.21289062 689.84765625 C-285.17256818 689.83128673 -291.48987374 690.62123764 -298.0234375 695.43359375 C-301.79052577 699.84143909 -301.64352738 704.17776805 -301.4921875 709.77734375 C-299.32790827 726.65872174 -287.24480296 742.47304941 -277.0234375 755.43359375 C-276.38921875 756.24957031 -275.755 757.06554688 -275.1015625 757.90625 C-264.35733073 771.55852798 -252.87540729 784.7929076 -240.44140625 796.93359375 C-239.63977051 797.71959961 -238.83813477 798.50560547 -238.01220703 799.31542969 C-236.43540005 800.85447454 -234.84957265 802.38435042 -233.25341797 803.90332031 C-227.48657866 809.52722195 -222.03538999 815.37679756 -221.46484375 823.765625 C-221.47662312 825.25961351 -221.51807514 826.75360082 -221.5859375 828.24609375 C-221.60406494 829.05651123 -221.62219238 829.86692871 -221.64086914 830.7019043 C-221.87303032 838.28607876 -222.62024809 845.82497497 -223.48828125 853.359375 C-225.1733538 868.92387998 -225.26385289 884.41502224 -225.2734375 900.05859375 C-225.27477692 901.34616577 -225.27611633 902.63373779 -225.27749634 903.96032715 C-225.27277082 924.94096182 -224.47116329 945.59878492 -222.0234375 966.43359375 C-221.91128906 967.44389648 -221.79914063 968.45419922 -221.68359375 969.49511719 C-220.96821942 975.83854454 -220.05419256 982.13420209 -219.0234375 988.43359375 C-218.81847656 989.69349121 -218.61351562 990.95338867 -218.40234375 992.25146484 C-214.40541255 1016.60380851 -209.61254608 1040.58143742 -201.79956055 1064.03637695 C-200.87745964 1066.88447662 -200.02186133 1069.75024859 -199.16015625 1072.6171875 C-197.01958437 1079.59577525 -194.55259446 1086.42361615 -191.9609375 1093.24609375 C-191.724888 1093.86821747 -191.4888385 1094.49034119 -191.24563599 1095.13131714 C-186.40656986 1107.83656507 -180.912386 1120.18159579 -175.0234375 1132.43359375 C-174.62334473 1133.28147461 -174.22325195 1134.12935547 -173.81103516 1135.00292969 C-158.95403155 1166.44665041 -139.47911704 1195.89274715 -115.828125 1221.41796875 C-114.09971994 1223.34839518 -112.54389102 1225.33706778 -111.0234375 1227.43359375 C-154.62991409 1213.7197378 -196.15195313 1183.61429407 -224.0234375 1147.43359375 C-225.02663322 1146.17000848 -226.03059592 1144.90703191 -227.03515625 1143.64453125 C-246.8777412 1118.48500234 -261.44431249 1090.2400714 -273.0234375 1060.43359375 C-273.37599609 1059.54462402 -273.72855469 1058.6556543 -274.09179688 1057.73974609 C-289.32253932 1019.14138706 -296.34819925 977.83807001 -299.82667542 936.6668396 C-299.96802279 935.0625496 -300.12511857 933.45961804 -300.29234314 931.8578186 C-301.08312461 923.75361595 -301.10253782 915.71113429 -301.00690651 907.58079147 C-300.97982387 905.14912925 -300.96223657 902.71756366 -300.94743347 900.28579712 C-300.90510904 893.38111398 -300.85700508 886.47662311 -300.77661133 879.57226562 C-300.72783362 875.3244257 -300.69902836 871.07683828 -300.68286705 866.82875443 C-300.67304361 865.22370865 -300.65594809 863.6186886 -300.63108253 862.01380539 C-300.42858183 848.65934195 -303.27215148 839.76091142 -310.3984375 828.49609375 C-321.94361896 809.70475625 -331.95610397 789.96335338 -340.0234375 769.43359375 C-340.38163574 768.5223877 -340.73983398 767.61118164 -341.10888672 766.67236328 C-345.7158822 754.80561146 -349.73581961 742.9807487 -352.0234375 730.43359375 C-352.19931396 729.50538818 -352.37519043 728.57718262 -352.55639648 727.62084961 C-353.97013271 719.47473681 -354.36487443 711.47590303 -354.33911133 703.23266602 C-354.33595554 701.13309468 -354.35950712 699.03494527 -354.38476562 696.93554688 C-354.5024106 672.36012204 -346.6805654 651.05339284 -329.3984375 633.24609375 C-316.66597973 620.72642332 -300.55561142 611.85647008 -283.0234375 608.43359375 C-283.78527344 606.68949219 -283.78527344 606.68949219 -284.5625 604.91015625 C-290.95829633 590.10203965 -296.48451609 575.19721254 -300.0234375 559.43359375 C-300.40411377 557.8405542 -300.40411377 557.8405542 -300.79248047 556.21533203 C-302.84442986 547.0115292 -303.52248974 538.22034944 -303.46948242 528.80004883 C-303.46095405 526.50055675 -303.48990732 524.20354735 -303.52148438 521.90429688 C-303.65197996 494.04311793 -291.98370172 469.88509983 -272.8984375 449.93359375 C-253.59098492 431.07762218 -221.90977545 413.27726132 -194.484375 412.30859375 C-193.67226563 412.34984375 -192.86015625 412.39109375 -192.0234375 412.43359375 C-192.18544144 411.57416168 -192.34744537 410.71472961 -192.51435852 409.82925415 C-193.00927044 406.52809093 -193.15694153 403.43819719 -193.16870117 400.10302734 C-193.17508102 398.86668549 -193.18146088 397.63034363 -193.18803406 396.35653687 C-193.18956509 395.0150354 -193.19067779 393.67353339 -193.19140625 392.33203125 C-193.19462801 390.93120288 -193.19799274 389.53037483 -193.20149231 388.12954712 C-193.20747202 385.18922144 -193.2093339 382.24892507 -193.20874023 379.30859375 C-193.20865963 376.33359612 -193.21549526 373.35875461 -193.22924805 370.38378906 C-193.30035131 354.75901261 -193.25273998 339.29347718 -191.29824829 323.7640686 C-190.90029188 320.38928336 -190.61525032 317.00672635 -190.32072449 313.62159729 C-189.33160621 302.37977015 -187.84179973 291.25719462 -186.0234375 280.12109375 C-185.87482269 279.20794403 -185.72620789 278.29479431 -185.5730896 277.35397339 C-172.89531771 200.43464399 -143.67100395 123.81199103 -90.24536133 65.85864258 C-88.87691752 64.36509765 -87.51931335 62.86142953 -86.18017578 61.34155273 C-79.63798125 53.92234258 -72.69690401 46.92092306 -65.70410156 39.92895508 C-63.65399732 37.87665951 -61.61204999 35.8164746 -59.5703125 33.75585938 C-20.29998324 -5.68242774 -20.29998324 -5.68242774 0 0 Z " fill="#FFFEFE" transform="translate(772.0234375,284.56640625)"/>
<path d="M0 0 C6.3195145 5.78084487 8.17253091 11.25547991 8.56640625 19.71875 C8.37809181 26.80919817 6.34357408 32.24297359 3.06640625 38.46875 C2.39158203 39.78939453 2.39158203 39.78939453 1.703125 41.13671875 C-6.69070504 55.82049895 -20.66990277 66.84475043 -34.93359375 75.46875 C-35.59020996 75.86787598 -36.24682617 76.26700195 -36.92333984 76.67822266 C-59.86868457 90.33737195 -89.57461497 100.12135363 -116.43359375 94.34375 C-126.90592127 91.23976373 -134.38072691 85.62705252 -139.80859375 76.21875 C-142.56204496 67.04057931 -141.01769311 58.9873596 -136.93359375 50.46875 C-132.63204392 42.52314111 -127.15698182 35.97247087 -120.93359375 29.46875 C-120.39347656 28.86546875 -119.85335937 28.2621875 -119.296875 27.640625 C-95.2505661 1.71664462 -32.28000896 -25.56315861 0 0 Z " fill="#FF630E" transform="translate(1118.93359375,1096.53125)"/>
<path d="M0 0 C0.66 0.33 1.32 0.66 2 1 C-2.455 3.97 -2.455 3.97 -7 7 C-6 3 -6 3 -3.0625 1.1875 C-2.051875 0.795625 -1.04125 0.40375 0 0 Z " fill="#FFDDCB" transform="translate(1392,1619)"/>
</svg>
